<svg width="22" height="23" viewBox="0 0 22 23" fill="none" xmlns="http://www.w3.org/2000/svg">
<path d="M21.9991 3.06058C22.0325 1.95652 21.1646 1.03437 20.0606 1.00092L2.06884 0.455713C0.964775 0.422256 0.0426331 1.29015 0.00917649 2.39422C-0.0242798 3.49828 0.843618 4.42042 1.94768 4.45388L17.9403 4.9385L17.4557 20.9312C17.4223 22.0352 18.2902 22.9574 19.3942 22.9908C20.4983 23.0243 21.4204 22.1564 21.4539 21.0523L21.9991 3.06058ZM4.37073 20.4564L5.43323 19.4564L2.69177 16.5436L1.62927 17.5436L4.37073 20.4564ZM7.55823 17.4564L9.68323 15.4564L6.94177 12.5436L4.81677 14.5436L7.55823 17.4564ZM11.8082 13.4564L13.9332 11.4564L11.1918 8.5436L9.06677 10.5436L11.8082 13.4564ZM16.0582 9.4564L18.1832 7.4564L15.4418 4.5436L13.3168 6.5436L16.0582 9.4564ZM20.3082 5.4564L21.3707 4.4564L18.6293 1.5436L17.5668 2.5436L20.3082 5.4564Z" fill="#2ABA52"/>
</svg>
