<svg width="182" height="24" viewBox="0 0 182 24" fill="none" xmlns="http://www.w3.org/2000/svg">
<g clip-path="url(#clip0_0_1)">
<path d="M24 24H6.6C2.958 24 0 21.042 0 17.4V6.6C0 2.958 2.958 0 6.6 0H17.4C21.048 0 24 2.958 24 6.6V24Z" fill="#24303D"/>
<path d="M11.016 13.644V18.216H7.62V5.646H11.736C15.15 5.646 16.86 6.882 16.86 9.36C16.86 10.818 16.152 11.94 14.73 12.738L18.39 18.216H14.538L11.874 13.644H11.016ZM11.016 11.088H11.652C12.84 11.088 13.434 10.566 13.434 9.516C13.434 8.652 12.852 8.22 11.688 8.22H11.016V11.088Z" fill="white"/>
</g>
<path d="M29.813 8.33594H34.0098C34.8301 8.33594 35.543 8.45801 36.1484 8.70215C36.7539 8.94629 37.2202 9.30762 37.5474 9.78613C37.8794 10.2646 38.0454 10.8555 38.0454 11.5586C38.0454 12.1689 37.9502 12.6792 37.7598 13.0894C37.5693 13.4995 37.3032 13.8389 36.9614 14.1074C36.6245 14.3711 36.2314 14.5884 35.7822 14.7593L34.9399 15.2354H31.417L31.4023 13.2505H34.0098C34.3369 13.2505 34.6079 13.1919 34.8228 13.0747C35.0376 12.9575 35.1987 12.7915 35.3062 12.5767C35.4185 12.3569 35.4746 12.0957 35.4746 11.793C35.4746 11.4854 35.4185 11.2217 35.3062 11.002C35.1938 10.7822 35.0278 10.6138 34.8081 10.4966C34.5933 10.3794 34.3271 10.3208 34.0098 10.3208H32.3838V19H29.813V8.33594ZM35.6504 19L33.292 14.2832L36.0166 14.2686L38.4043 18.8901V19H35.6504ZM43.3188 19.1465C42.6743 19.1465 42.0981 19.0464 41.5903 18.8462C41.0825 18.6411 40.6528 18.3604 40.3013 18.0039C39.9546 17.6475 39.6885 17.2373 39.5029 16.7734C39.3223 16.3096 39.2319 15.8188 39.2319 15.3013V15.0229C39.2319 14.4419 39.3125 13.9048 39.4736 13.4116C39.6348 12.9136 39.874 12.479 40.1914 12.1079C40.5088 11.7368 40.9067 11.4487 41.3853 11.2437C41.8638 11.0337 42.4204 10.9287 43.0552 10.9287C43.6167 10.9287 44.1196 11.019 44.564 11.1997C45.0083 11.3804 45.3843 11.6392 45.6919 11.9761C46.0044 12.313 46.2412 12.7207 46.4023 13.1992C46.5684 13.6777 46.6514 14.2148 46.6514 14.8105V15.814H40.1768V14.2686H44.2417V14.0781C44.2466 13.8145 44.2002 13.5898 44.1025 13.4043C44.0098 13.2188 43.873 13.0771 43.6924 12.9795C43.5117 12.8818 43.292 12.833 43.0332 12.833C42.7646 12.833 42.5425 12.8916 42.3667 13.0088C42.1958 13.126 42.0615 13.2871 41.9639 13.4922C41.8711 13.6924 41.8052 13.9243 41.7661 14.188C41.7271 14.4517 41.7075 14.73 41.7075 15.0229V15.3013C41.7075 15.5942 41.7466 15.8604 41.8247 16.0996C41.9077 16.3389 42.0249 16.5439 42.1763 16.7148C42.3325 16.8809 42.5181 17.0103 42.7329 17.103C42.9526 17.1958 43.2017 17.2422 43.48 17.2422C43.8169 17.2422 44.1489 17.1787 44.4761 17.0518C44.8032 16.9248 45.084 16.7148 45.3184 16.4219L46.439 17.7549C46.2778 17.9844 46.0483 18.2065 45.7505 18.4214C45.4575 18.6362 45.106 18.812 44.6958 18.9487C44.2856 19.0806 43.8267 19.1465 43.3188 19.1465ZM50.0791 12.7671V19H47.6108V11.0752H49.9253L50.0791 12.7671ZM49.7861 14.7666L49.2075 14.7812C49.2075 14.1758 49.2808 13.6362 49.4272 13.1626C49.5737 12.6841 49.7812 12.2788 50.0498 11.9468C50.3184 11.6147 50.6382 11.3633 51.0093 11.1924C51.3853 11.0166 51.8027 10.9287 52.2617 10.9287C52.6279 10.9287 52.9624 10.9824 53.2651 11.0898C53.5728 11.1973 53.8364 11.3706 54.0562 11.6099C54.2808 11.8491 54.4517 12.1665 54.5688 12.562C54.6909 12.9526 54.752 13.436 54.752 14.0122V19H52.269V14.0049C52.269 13.6875 52.2251 13.4458 52.1372 13.2798C52.0493 13.1089 51.9224 12.9917 51.7563 12.9282C51.5903 12.8647 51.3877 12.833 51.1484 12.833C50.8945 12.833 50.6797 12.8818 50.5039 12.9795C50.3281 13.0771 50.1865 13.2139 50.0791 13.3896C49.9766 13.5605 49.9009 13.7632 49.8521 13.9976C49.8081 14.2319 49.7861 14.4883 49.7861 14.7666ZM60.2964 11.0752V12.7891H55.521V11.0752H60.2964ZM56.5244 9.10498H58.9927V16.4146C58.9927 16.6245 59.0171 16.7881 59.0659 16.9053C59.1147 17.0176 59.1978 17.0981 59.3149 17.147C59.437 17.1909 59.5981 17.2129 59.7983 17.2129C59.9399 17.2129 60.0571 17.2104 60.1499 17.2056C60.2427 17.1958 60.3306 17.1836 60.4136 17.1689V18.9341C60.2036 19.0024 59.9839 19.0537 59.7544 19.0879C59.5249 19.127 59.2808 19.1465 59.022 19.1465C58.4946 19.1465 58.043 19.0635 57.667 18.8975C57.2959 18.7314 57.0127 18.4702 56.8174 18.1138C56.6221 17.7573 56.5244 17.2935 56.5244 16.7222V9.10498ZM65.394 17.0078V13.7412C65.394 13.5166 65.3623 13.3237 65.2988 13.1626C65.2354 13.0015 65.1353 12.877 64.9985 12.7891C64.8618 12.6963 64.6787 12.6499 64.4492 12.6499C64.2637 12.6499 64.105 12.6816 63.9731 12.7451C63.8413 12.8086 63.7412 12.9038 63.6729 13.0308C63.6045 13.1577 63.5703 13.3188 63.5703 13.5142H61.1021C61.1021 13.1479 61.1826 12.8086 61.3438 12.4961C61.5098 12.1787 61.7441 11.9028 62.0469 11.6685C62.3545 11.4341 62.7207 11.2534 63.1455 11.1265C63.5752 10.9946 64.0537 10.9287 64.5811 10.9287C65.2109 10.9287 65.7725 11.0337 66.2656 11.2437C66.7637 11.4536 67.1567 11.7686 67.4448 12.1885C67.7329 12.6035 67.877 13.126 67.877 13.7559V17.0005C67.877 17.5181 67.9062 17.9111 67.9648 18.1797C68.0234 18.4434 68.1064 18.6753 68.2139 18.8755V19H65.7383C65.6211 18.7559 65.5332 18.458 65.4746 18.1064C65.4209 17.75 65.394 17.3838 65.394 17.0078ZM65.6943 14.1587L65.709 15.4771H64.6177C64.3882 15.4771 64.1929 15.5088 64.0317 15.5723C63.8755 15.6357 63.7485 15.7236 63.6509 15.8359C63.5581 15.9434 63.4897 16.0654 63.4458 16.2021C63.4067 16.3389 63.3872 16.4829 63.3872 16.6343C63.3872 16.7808 63.4214 16.9126 63.4897 17.0298C63.563 17.1421 63.6606 17.23 63.7827 17.2935C63.9048 17.3569 64.0415 17.3887 64.1929 17.3887C64.4663 17.3887 64.6982 17.3374 64.8887 17.2349C65.084 17.1274 65.2329 16.998 65.3354 16.8467C65.438 16.6953 65.4893 16.5537 65.4893 16.4219L66.0312 17.4326C65.9336 17.6279 65.8213 17.8257 65.6943 18.0259C65.5723 18.2261 65.4185 18.4116 65.2329 18.5825C65.0522 18.7485 64.8301 18.8853 64.5664 18.9927C64.3027 19.0952 63.9829 19.1465 63.6069 19.1465C63.1187 19.1465 62.6694 19.0464 62.2593 18.8462C61.854 18.646 61.5293 18.3677 61.2852 18.0112C61.041 17.6499 60.9189 17.2349 60.9189 16.7661C60.9189 16.356 60.9922 15.9897 61.1387 15.6675C61.29 15.3452 61.5171 15.0718 61.8198 14.8472C62.1226 14.6226 62.5083 14.4517 62.9771 14.3345C63.4458 14.2173 63.9976 14.1587 64.6323 14.1587H65.6943ZM71.854 7.75V19H69.3784V7.75H71.854ZM75.8677 12.7524V19H73.3994V11.0752H75.7139L75.8677 12.7524ZM75.5674 14.7666L75.0034 14.7812C75.0034 14.2246 75.0693 13.7119 75.2012 13.2432C75.333 12.7744 75.5283 12.3667 75.7871 12.02C76.0459 11.6733 76.3633 11.4048 76.7393 11.2144C77.1201 11.0239 77.5596 10.9287 78.0576 10.9287C78.4043 10.9287 78.7192 10.9824 79.0024 11.0898C79.2856 11.1924 79.5298 11.356 79.7349 11.5806C79.9399 11.8003 80.0962 12.0884 80.2036 12.4448C80.3159 12.7964 80.3721 13.2188 80.3721 13.7119V19H77.9038V14.0269C77.9038 13.6899 77.8647 13.436 77.7866 13.2651C77.7134 13.0942 77.606 12.9795 77.4644 12.9209C77.3228 12.8623 77.1494 12.833 76.9443 12.833C76.7295 12.833 76.5366 12.8818 76.3657 12.9795C76.1948 13.0771 76.0483 13.2139 75.9263 13.3896C75.8091 13.5605 75.7188 13.7632 75.6553 13.9976C75.5967 14.2319 75.5674 14.4883 75.5674 14.7666ZM80.0938 14.7666L79.4053 14.7812C79.4053 14.2246 79.4663 13.7119 79.5884 13.2432C79.7153 12.7744 79.9033 12.3667 80.1523 12.02C80.4062 11.6733 80.7212 11.4048 81.0972 11.2144C81.4731 11.0239 81.9102 10.9287 82.4082 10.9287C82.7695 10.9287 83.1016 10.9824 83.4043 11.0898C83.707 11.1973 83.9683 11.3706 84.188 11.6099C84.4077 11.8491 84.5786 12.1665 84.7007 12.562C84.8228 12.9526 84.8838 13.436 84.8838 14.0122V19H82.4082V14.0122C82.4082 13.6851 82.3691 13.4385 82.291 13.2725C82.2178 13.1016 82.1104 12.9868 81.9688 12.9282C81.8271 12.8647 81.6587 12.833 81.4634 12.833C81.229 12.833 81.0264 12.8818 80.8555 12.9795C80.6846 13.0771 80.5405 13.2139 80.4233 13.3896C80.311 13.5605 80.228 13.7632 80.1743 13.9976C80.1206 14.2319 80.0938 14.4883 80.0938 14.7666ZM90.4136 17.0078V13.7412C90.4136 13.5166 90.3818 13.3237 90.3184 13.1626C90.2549 13.0015 90.1548 12.877 90.0181 12.7891C89.8813 12.6963 89.6982 12.6499 89.4688 12.6499C89.2832 12.6499 89.1245 12.6816 88.9927 12.7451C88.8608 12.8086 88.7607 12.9038 88.6924 13.0308C88.624 13.1577 88.5898 13.3188 88.5898 13.5142H86.1216C86.1216 13.1479 86.2021 12.8086 86.3633 12.4961C86.5293 12.1787 86.7637 11.9028 87.0664 11.6685C87.374 11.4341 87.7402 11.2534 88.165 11.1265C88.5947 10.9946 89.0732 10.9287 89.6006 10.9287C90.2305 10.9287 90.792 11.0337 91.2852 11.2437C91.7832 11.4536 92.1763 11.7686 92.4644 12.1885C92.7524 12.6035 92.8965 13.126 92.8965 13.7559V17.0005C92.8965 17.5181 92.9258 17.9111 92.9844 18.1797C93.043 18.4434 93.126 18.6753 93.2334 18.8755V19H90.7578C90.6406 18.7559 90.5527 18.458 90.4941 18.1064C90.4404 17.75 90.4136 17.3838 90.4136 17.0078ZM90.7139 14.1587L90.7285 15.4771H89.6372C89.4077 15.4771 89.2124 15.5088 89.0513 15.5723C88.895 15.6357 88.7681 15.7236 88.6704 15.8359C88.5776 15.9434 88.5093 16.0654 88.4653 16.2021C88.4263 16.3389 88.4067 16.4829 88.4067 16.6343C88.4067 16.7808 88.4409 16.9126 88.5093 17.0298C88.5825 17.1421 88.6802 17.23 88.8022 17.2935C88.9243 17.3569 89.061 17.3887 89.2124 17.3887C89.4858 17.3887 89.7178 17.3374 89.9082 17.2349C90.1035 17.1274 90.2524 16.998 90.355 16.8467C90.4575 16.6953 90.5088 16.5537 90.5088 16.4219L91.0508 17.4326C90.9531 17.6279 90.8408 17.8257 90.7139 18.0259C90.5918 18.2261 90.438 18.4116 90.2524 18.5825C90.0718 18.7485 89.8496 18.8853 89.5859 18.9927C89.3223 19.0952 89.0024 19.1465 88.6265 19.1465C88.1382 19.1465 87.689 19.0464 87.2788 18.8462C86.8735 18.646 86.5488 18.3677 86.3047 18.0112C86.0605 17.6499 85.9385 17.2349 85.9385 16.7661C85.9385 16.356 86.0117 15.9897 86.1582 15.6675C86.3096 15.3452 86.5366 15.0718 86.8394 14.8472C87.1421 14.6226 87.5278 14.4517 87.9966 14.3345C88.4653 14.2173 89.0171 14.1587 89.6519 14.1587H90.7139ZM96.7563 13.0381V19H94.2881V11.0752H96.5952L96.7563 13.0381ZM99.1001 11.0166L99.0562 13.3091C98.9585 13.2993 98.8267 13.2871 98.6606 13.2725C98.4946 13.2578 98.3555 13.2505 98.2432 13.2505C97.9551 13.2505 97.7061 13.2847 97.4961 13.353C97.291 13.4165 97.1201 13.5142 96.9834 13.646C96.8516 13.7729 96.7539 13.9341 96.6904 14.1294C96.6318 14.3247 96.605 14.5518 96.6099 14.8105L96.1631 14.5176C96.1631 13.9854 96.2144 13.502 96.3169 13.0674C96.4243 12.6279 96.5757 12.2495 96.771 11.9321C96.9663 11.6099 97.2031 11.3633 97.4814 11.1924C97.7598 11.0166 98.0723 10.9287 98.4189 10.9287C98.541 10.9287 98.6606 10.936 98.7778 10.9507C98.8999 10.9653 99.0073 10.9873 99.1001 11.0166ZM102.44 7.74268V19H99.9717V7.74268H102.44ZM107.508 11.0752L104.066 15.1108L102.264 16.9126L101.188 15.3452L102.689 13.3896L104.549 11.0752H107.508ZM104.864 19L102.748 15.3892L104.571 14.0928L107.691 19H104.864ZM112.306 16.7734C112.306 16.6367 112.259 16.5195 112.167 16.4219C112.079 16.3193 111.922 16.2266 111.698 16.1436C111.473 16.0557 111.158 15.9678 110.753 15.8799C110.367 15.7969 110.003 15.687 109.662 15.5503C109.325 15.4136 109.029 15.2476 108.775 15.0522C108.521 14.8569 108.321 14.625 108.175 14.3564C108.033 14.0879 107.962 13.7803 107.962 13.4336C107.962 13.0967 108.033 12.7793 108.175 12.4814C108.321 12.1787 108.534 11.9126 108.812 11.6831C109.095 11.4487 109.439 11.2656 109.845 11.1338C110.25 10.9971 110.711 10.9287 111.229 10.9287C111.942 10.9287 112.557 11.0386 113.075 11.2583C113.592 11.4731 113.99 11.7759 114.269 12.1665C114.552 12.5522 114.693 12.999 114.693 13.5068H112.225C112.225 13.3066 112.191 13.1357 112.123 12.9941C112.059 12.8525 111.954 12.7451 111.808 12.6719C111.661 12.5938 111.466 12.5547 111.222 12.5547C111.051 12.5547 110.895 12.5864 110.753 12.6499C110.616 12.7134 110.506 12.8013 110.423 12.9136C110.34 13.0259 110.299 13.1577 110.299 13.3091C110.299 13.4165 110.323 13.5142 110.372 13.6021C110.426 13.6851 110.506 13.7632 110.614 13.8364C110.721 13.9048 110.858 13.9683 111.024 14.0269C111.19 14.0806 111.39 14.1294 111.625 14.1733C112.157 14.271 112.655 14.4102 113.119 14.5908C113.583 14.7715 113.958 15.0278 114.247 15.3599C114.54 15.6919 114.686 16.1387 114.686 16.7002C114.686 17.0518 114.605 17.3765 114.444 17.6743C114.283 17.9673 114.051 18.2261 113.749 18.4507C113.446 18.6704 113.082 18.8413 112.657 18.9634C112.232 19.0854 111.754 19.1465 111.222 19.1465C110.465 19.1465 109.825 19.0122 109.303 18.7437C108.78 18.4702 108.385 18.1284 108.116 17.7183C107.853 17.3032 107.721 16.8833 107.721 16.4585H110.021C110.03 16.7026 110.089 16.9028 110.196 17.0591C110.309 17.2153 110.458 17.3301 110.643 17.4033C110.829 17.4766 111.043 17.5132 111.288 17.5132C111.512 17.5132 111.698 17.4814 111.844 17.418C111.996 17.3545 112.11 17.269 112.188 17.1616C112.267 17.0493 112.306 16.9199 112.306 16.7734ZM127.643 13.873H124.64L124.625 13.1113H127.21C127.738 13.1113 128.187 13.0356 128.558 12.8843C128.929 12.7329 129.21 12.5083 129.4 12.2104C129.596 11.9077 129.693 11.5366 129.693 11.0972C129.693 10.6479 129.598 10.2769 129.408 9.98389C129.217 9.68604 128.932 9.46631 128.551 9.32471C128.17 9.18311 127.691 9.1123 127.115 9.1123H124.874V19H123.973V8.33594H127.115C127.657 8.33594 128.143 8.38965 128.573 8.49707C129.002 8.60449 129.369 8.77295 129.671 9.00244C129.974 9.23193 130.204 9.52246 130.36 9.87402C130.521 10.2207 130.602 10.6357 130.602 11.1191C130.602 11.5586 130.504 11.9565 130.309 12.313C130.113 12.6646 129.837 12.9526 129.481 13.1772C129.129 13.397 128.707 13.5337 128.214 13.5874L127.643 13.873ZM127.577 19H124.354L124.815 18.231H127.577C128.104 18.231 128.553 18.1431 128.924 17.9673C129.3 17.7866 129.588 17.5303 129.789 17.1982C129.989 16.8662 130.089 16.4707 130.089 16.0117C130.089 15.6064 130.001 15.2427 129.825 14.9204C129.649 14.5981 129.381 14.3442 129.02 14.1587C128.658 13.9683 128.199 13.873 127.643 13.873H125.775L125.79 13.1113H128.434L128.595 13.3823C129.073 13.4312 129.491 13.5801 129.847 13.8291C130.208 14.0732 130.487 14.3833 130.682 14.7593C130.882 15.1353 130.982 15.5479 130.982 15.9971C130.982 16.6416 130.838 17.1885 130.55 17.6377C130.267 18.082 129.869 18.4214 129.356 18.6558C128.849 18.8853 128.255 19 127.577 19ZM138.043 17.1689V11.0752H138.922V19H138.08L138.043 17.1689ZM138.204 15.7041L138.658 15.6895C138.658 16.1875 138.6 16.6465 138.482 17.0664C138.365 17.4863 138.182 17.8525 137.933 18.165C137.684 18.4775 137.362 18.7192 136.966 18.8901C136.571 19.061 136.095 19.1465 135.538 19.1465C135.152 19.1465 134.798 19.0928 134.476 18.9854C134.159 18.873 133.885 18.6973 133.656 18.458C133.426 18.2188 133.248 17.9087 133.121 17.5278C132.999 17.147 132.938 16.6855 132.938 16.1436V11.0752H133.81V16.1582C133.81 16.583 133.856 16.937 133.949 17.2202C134.046 17.5034 134.178 17.7305 134.344 17.9014C134.515 18.0723 134.71 18.1943 134.93 18.2676C135.15 18.3408 135.387 18.3774 135.641 18.3774C136.285 18.3774 136.793 18.2529 137.164 18.0039C137.54 17.7549 137.806 17.4277 137.962 17.0225C138.124 16.6123 138.204 16.1729 138.204 15.7041ZM145.96 16.9785C145.96 16.7637 145.907 16.5513 145.799 16.3413C145.692 16.1313 145.484 15.9385 145.177 15.7627C144.874 15.5869 144.427 15.438 143.836 15.3159C143.397 15.2183 143.004 15.1084 142.657 14.9863C142.315 14.8643 142.027 14.7178 141.793 14.5469C141.559 14.376 141.38 14.1709 141.258 13.9316C141.136 13.6924 141.075 13.4092 141.075 13.082C141.075 12.7891 141.139 12.5132 141.266 12.2544C141.397 11.9907 141.583 11.7612 141.822 11.5659C142.066 11.3657 142.359 11.2095 142.701 11.0972C143.048 10.9849 143.436 10.9287 143.866 10.9287C144.476 10.9287 144.999 11.0337 145.433 11.2437C145.873 11.4487 146.207 11.7295 146.437 12.0859C146.671 12.4424 146.788 12.8452 146.788 13.2944H145.917C145.917 13.021 145.836 12.7622 145.675 12.5181C145.519 12.2739 145.287 12.0737 144.979 11.9175C144.676 11.7612 144.305 11.6831 143.866 11.6831C143.412 11.6831 143.043 11.7515 142.76 11.8882C142.477 12.0249 142.269 12.1982 142.137 12.4082C142.01 12.6182 141.947 12.8354 141.947 13.0601C141.947 13.2358 141.974 13.397 142.027 13.5435C142.086 13.6851 142.188 13.8169 142.335 13.939C142.486 14.061 142.701 14.1758 142.979 14.2832C143.258 14.3906 143.619 14.4956 144.063 14.5981C144.703 14.7397 145.226 14.9131 145.631 15.1182C146.041 15.3184 146.344 15.5674 146.539 15.8652C146.734 16.1582 146.832 16.5146 146.832 16.9346C146.832 17.2617 146.764 17.562 146.627 17.8354C146.49 18.104 146.292 18.3359 146.034 18.5312C145.78 18.7266 145.472 18.8779 145.111 18.9854C144.754 19.0928 144.354 19.1465 143.91 19.1465C143.241 19.1465 142.674 19.0366 142.21 18.8169C141.751 18.5923 141.402 18.2993 141.163 17.938C140.929 17.5718 140.812 17.1836 140.812 16.7734H141.683C141.712 17.1836 141.842 17.5083 142.071 17.7476C142.301 17.9819 142.582 18.1479 142.914 18.2456C143.25 18.3433 143.583 18.3921 143.91 18.3921C144.359 18.3921 144.735 18.3262 145.038 18.1943C145.34 18.0625 145.57 17.8892 145.726 17.6743C145.882 17.4595 145.96 17.2275 145.96 16.9785ZM149.791 11.0752V19H148.919V11.0752H149.791ZM148.766 8.78271C148.766 8.6167 148.817 8.47754 148.919 8.36523C149.027 8.24805 149.173 8.18945 149.359 8.18945C149.544 8.18945 149.691 8.24805 149.798 8.36523C149.911 8.47754 149.967 8.6167 149.967 8.78271C149.967 8.94385 149.911 9.08301 149.798 9.2002C149.691 9.3125 149.544 9.36865 149.359 9.36865C149.173 9.36865 149.027 9.3125 148.919 9.2002C148.817 9.08301 148.766 8.94385 148.766 8.78271ZM153.058 12.7671V19H152.186V11.0752H153.021L153.058 12.7671ZM152.86 14.5469L152.472 14.3271C152.501 13.8584 152.596 13.4189 152.757 13.0088C152.918 12.5986 153.136 12.2373 153.409 11.9248C153.688 11.6123 154.012 11.3682 154.383 11.1924C154.759 11.0166 155.174 10.9287 155.628 10.9287C156.024 10.9287 156.378 10.9824 156.69 11.0898C157.003 11.1973 157.269 11.3682 157.489 11.6025C157.708 11.8369 157.875 12.1372 157.987 12.5034C158.104 12.8696 158.163 13.3164 158.163 13.8438V19H157.284V13.8364C157.284 13.2896 157.208 12.8623 157.057 12.5547C156.905 12.2422 156.69 12.02 156.412 11.8882C156.134 11.7563 155.804 11.6904 155.423 11.6904C155.003 11.6904 154.635 11.7832 154.317 11.9688C154.005 12.1494 153.741 12.3862 153.526 12.6792C153.316 12.9673 153.155 13.2773 153.043 13.6094C152.931 13.9365 152.87 14.249 152.86 14.5469ZM163.495 19.1465C162.977 19.1465 162.501 19.0513 162.066 18.8608C161.637 18.6704 161.261 18.4019 160.938 18.0552C160.621 17.7085 160.375 17.2983 160.199 16.8247C160.028 16.3462 159.942 15.8237 159.942 15.2573V14.9424C159.942 14.332 160.033 13.7803 160.213 13.2871C160.394 12.7939 160.643 12.3716 160.96 12.02C161.278 11.6685 161.639 11.3999 162.044 11.2144C162.455 11.0239 162.884 10.9287 163.333 10.9287C163.836 10.9287 164.283 11.019 164.674 11.1997C165.064 11.3755 165.392 11.627 165.655 11.9541C165.924 12.2764 166.126 12.6597 166.263 13.104C166.4 13.5435 166.468 14.0293 166.468 14.5615V15.0962H160.47V14.3491H165.597V14.2466C165.587 13.8022 165.497 13.3872 165.326 13.0015C165.16 12.6108 164.911 12.2935 164.579 12.0493C164.247 11.8052 163.832 11.6831 163.333 11.6831C162.962 11.6831 162.621 11.7612 162.308 11.9175C162 12.0737 161.734 12.2983 161.51 12.5913C161.29 12.8794 161.119 13.2236 160.997 13.624C160.88 14.0195 160.821 14.459 160.821 14.9424V15.2573C160.821 15.6968 160.885 16.1069 161.012 16.4878C161.144 16.8638 161.329 17.1958 161.568 17.4839C161.812 17.772 162.101 17.9966 162.433 18.1577C162.765 18.3188 163.131 18.3994 163.531 18.3994C164 18.3994 164.415 18.314 164.776 18.1431C165.138 17.9673 165.462 17.6914 165.75 17.3154L166.3 17.7402C166.129 17.9941 165.914 18.2285 165.655 18.4434C165.401 18.6582 165.096 18.8291 164.74 18.9561C164.383 19.083 163.968 19.1465 163.495 19.1465ZM172.943 16.9785C172.943 16.7637 172.889 16.5513 172.782 16.3413C172.674 16.1313 172.467 15.9385 172.159 15.7627C171.856 15.5869 171.41 15.438 170.819 15.3159C170.379 15.2183 169.986 15.1084 169.64 14.9863C169.298 14.8643 169.01 14.7178 168.775 14.5469C168.541 14.376 168.363 14.1709 168.241 13.9316C168.119 13.6924 168.058 13.4092 168.058 13.082C168.058 12.7891 168.121 12.5132 168.248 12.2544C168.38 11.9907 168.565 11.7612 168.805 11.5659C169.049 11.3657 169.342 11.2095 169.684 11.0972C170.03 10.9849 170.418 10.9287 170.848 10.9287C171.458 10.9287 171.981 11.0337 172.416 11.2437C172.855 11.4487 173.189 11.7295 173.419 12.0859C173.653 12.4424 173.771 12.8452 173.771 13.2944H172.899C172.899 13.021 172.818 12.7622 172.657 12.5181C172.501 12.2739 172.269 12.0737 171.961 11.9175C171.659 11.7612 171.288 11.6831 170.848 11.6831C170.394 11.6831 170.025 11.7515 169.742 11.8882C169.459 12.0249 169.251 12.1982 169.12 12.4082C168.993 12.6182 168.929 12.8354 168.929 13.0601C168.929 13.2358 168.956 13.397 169.01 13.5435C169.068 13.6851 169.171 13.8169 169.317 13.939C169.469 14.061 169.684 14.1758 169.962 14.2832C170.24 14.3906 170.602 14.4956 171.046 14.5981C171.686 14.7397 172.208 14.9131 172.613 15.1182C173.023 15.3184 173.326 15.5674 173.521 15.8652C173.717 16.1582 173.814 16.5146 173.814 16.9346C173.814 17.2617 173.746 17.562 173.609 17.8354C173.473 18.104 173.275 18.3359 173.016 18.5312C172.762 18.7266 172.455 18.8779 172.093 18.9854C171.737 19.0928 171.336 19.1465 170.892 19.1465C170.223 19.1465 169.657 19.0366 169.193 18.8169C168.734 18.5923 168.385 18.2993 168.146 17.938C167.911 17.5718 167.794 17.1836 167.794 16.7734H168.666C168.695 17.1836 168.824 17.5083 169.054 17.7476C169.283 17.9819 169.564 18.1479 169.896 18.2456C170.233 18.3433 170.565 18.3921 170.892 18.3921C171.341 18.3921 171.717 18.3262 172.02 18.1943C172.323 18.0625 172.552 17.8892 172.708 17.6743C172.865 17.4595 172.943 17.2275 172.943 16.9785ZM180.545 16.9785C180.545 16.7637 180.492 16.5513 180.384 16.3413C180.277 16.1313 180.069 15.9385 179.762 15.7627C179.459 15.5869 179.012 15.438 178.421 15.3159C177.982 15.2183 177.589 15.1084 177.242 14.9863C176.9 14.8643 176.612 14.7178 176.378 14.5469C176.144 14.376 175.965 14.1709 175.843 13.9316C175.721 13.6924 175.66 13.4092 175.66 13.082C175.66 12.7891 175.724 12.5132 175.851 12.2544C175.982 11.9907 176.168 11.7612 176.407 11.5659C176.651 11.3657 176.944 11.2095 177.286 11.0972C177.633 10.9849 178.021 10.9287 178.451 10.9287C179.061 10.9287 179.583 11.0337 180.018 11.2437C180.458 11.4487 180.792 11.7295 181.021 12.0859C181.256 12.4424 181.373 12.8452 181.373 13.2944H180.501C180.501 13.021 180.421 12.7622 180.26 12.5181C180.104 12.2739 179.872 12.0737 179.564 11.9175C179.261 11.7612 178.89 11.6831 178.451 11.6831C177.997 11.6831 177.628 11.7515 177.345 11.8882C177.062 12.0249 176.854 12.1982 176.722 12.4082C176.595 12.6182 176.532 12.8354 176.532 13.0601C176.532 13.2358 176.559 13.397 176.612 13.5435C176.671 13.6851 176.773 13.8169 176.92 13.939C177.071 14.061 177.286 14.1758 177.564 14.2832C177.843 14.3906 178.204 14.4956 178.648 14.5981C179.288 14.7397 179.811 14.9131 180.216 15.1182C180.626 15.3184 180.929 15.5674 181.124 15.8652C181.319 16.1582 181.417 16.5146 181.417 16.9346C181.417 17.2617 181.349 17.562 181.212 17.8354C181.075 18.104 180.877 18.3359 180.619 18.5312C180.365 18.7266 180.057 18.8779 179.696 18.9854C179.339 19.0928 178.939 19.1465 178.495 19.1465C177.826 19.1465 177.259 19.0366 176.795 18.8169C176.336 18.5923 175.987 18.2993 175.748 17.938C175.514 17.5718 175.396 17.1836 175.396 16.7734H176.268C176.297 17.1836 176.427 17.5083 176.656 17.7476C176.886 17.9819 177.167 18.1479 177.499 18.2456C177.835 18.3433 178.167 18.3921 178.495 18.3921C178.944 18.3921 179.32 18.3262 179.623 18.1943C179.925 18.0625 180.155 17.8892 180.311 17.6743C180.467 17.4595 180.545 17.2275 180.545 16.9785Z" fill="black"/>
<defs>
<clipPath id="clip0_0_1">
<rect width="24" height="24" fill="white"/>
</clipPath>
</defs>
</svg>
