<svg width="15" height="16" viewBox="0 0 15 16" fill="none" xmlns="http://www.w3.org/2000/svg">
<path d="M13.125 7.68752C13.1272 8.51244 12.9344 9.3262 12.5625 10.0625C12.1215 10.9449 11.4436 11.687 10.6047 12.2058C9.76572 12.7246 8.7989 12.9996 7.8125 13C6.98758 13.0022 6.17382 12.8094 5.4375 12.4375L1.875 13.625L3.0625 10.0625C2.69058 9.3262 2.49785 8.51244 2.5 7.68752C2.50038 6.70112 2.77538 5.7343 3.2942 4.89536C3.81302 4.05642 4.55516 3.3785 5.4375 2.93752C6.17382 2.5656 6.98758 2.37287 7.8125 2.37502H8.125C9.42772 2.44689 10.6582 2.99674 11.5807 3.9193C12.5033 4.84187 13.0531 6.0723 13.125 7.37502V7.68752Z" stroke="#666666" stroke-opacity="0.85" stroke-width="2" stroke-linecap="round" stroke-linejoin="round"/>
</svg>
