<svg width="19" height="21" viewBox="0 0 19 21" fill="none" xmlns="http://www.w3.org/2000/svg">
<path d="M7.77002 20.69C7.54002 20.69 7.32001 20.59 7.17001 20.39L6.16 19.04C5.95 18.76 5.67003 18.6 5.37003 18.58C5.06003 18.56 4.77 18.7 4.53 18.95C3.08 20.5 1.98001 20.37 1.45001 20.17C0.910012 19.96 0 19.27 0 17.05V5.79001C0 1.35001 1.28 0 5.47 0H13.02C17.21 0 18.49 1.35001 18.49 5.79001V17.18C18.49 17.59 18.15 17.93 17.74 17.93C17.33 17.93 16.99 17.59 16.99 17.18V5.79001C16.99 2.18001 16.36 1.5 13.02 1.5H5.47C2.13 1.5 1.5 2.18001 1.5 5.79001V17.05C1.5 18.1 1.76 18.68 2 18.77C2.18 18.84 2.67002 18.74 3.43002 17.93C3.98002 17.35 4.70001 17.04 5.45001 17.08C6.19001 17.12 6.89002 17.51 7.36002 18.14L8.38 19.49C8.63 19.82 8.56001 20.29 8.23001 20.54C8.08001 20.65 7.92002 20.69 7.77002 20.69Z" fill="#292D32"/>
<path d="M13.2305 6.42969H5.23047C4.82047 6.42969 4.48047 6.08969 4.48047 5.67969C4.48047 5.26969 4.82047 4.92969 5.23047 4.92969H13.2305C13.6405 4.92969 13.9805 5.26969 13.9805 5.67969C13.9805 6.08969 13.6405 6.42969 13.2305 6.42969Z" fill="#292D32"/>
<path d="M12.2305 10.4297H6.23047C5.82047 10.4297 5.48047 10.0897 5.48047 9.67969C5.48047 9.26969 5.82047 8.92969 6.23047 8.92969H12.2305C12.6405 8.92969 12.9805 9.26969 12.9805 9.67969C12.9805 10.0897 12.6405 10.4297 12.2305 10.4297Z" fill="#292D32"/>
<path d="M17.572 18.9802C17.7658 18.6672 17.9458 18.181 18.0017 17.4297H17.4998C17.4715 17.7719 17.4139 18.0655 17.3343 18.3066C17.2764 18.4818 17.2024 18.6426 17.1092 18.7764C17.0208 18.9033 16.8878 19.0447 16.6979 19.1168C16.4166 19.2248 16.0912 19.1503 15.8022 19.0088C15.4916 18.8567 15.1321 18.5857 14.7258 18.1528C14.2658 17.6682 13.6844 17.4277 13.0963 17.459C12.5155 17.4904 11.9483 17.7985 11.5603 18.3187L11.5603 18.3187L11.5584 18.3211L10.5385 19.6711L10.5381 19.6716C10.4593 19.7756 10.4762 19.9314 10.5885 20.0189C10.6411 20.0565 10.6933 20.0697 10.7495 20.0697C10.8295 20.0697 10.8982 20.038 10.9495 19.9698C10.9495 19.9698 10.9495 19.9697 10.9495 19.9697L11.9592 18.6202L11.9595 18.6197C12.2441 18.2402 12.6508 17.9918 13.1162 17.9608L13.1173 17.9607C13.6112 17.9289 14.0368 18.157 14.3502 18.4834L14.3503 18.4834L14.3547 18.4881C15.0323 19.2125 15.5914 19.5054 16.0007 19.6121C16.4037 19.7172 16.7036 19.653 16.8906 19.5828C17.0724 19.5117 17.342 19.3515 17.572 18.9802Z" fill="#292D32" stroke="#292D32"/>
</svg>
