<svg width="22" height="24" viewBox="0 0 22 24" fill="none" xmlns="http://www.w3.org/2000/svg">
<path d="M21.9965 19.8826C22.0614 20.9852 21.2201 21.9317 20.1174 21.9965L2.14851 23.0535C1.04584 23.1184 0.0993758 22.2771 0.0345132 21.1744C-0.0303493 20.0718 0.810954 19.1253 1.91362 19.0604L17.886 18.1209L16.9465 2.14851C16.8816 1.04584 17.7229 0.0993748 18.8256 0.0345135C19.9282 -0.0303497 20.8747 0.810953 20.9396 1.91362L21.9965 19.8826ZM3.32873 2.50518L4.45373 3.50518L1.79627 6.49482L0.671272 5.49482L3.32873 2.50518ZM6.70373 5.50518L8.95373 7.50518L6.29627 10.4948L4.04627 8.49482L6.70373 5.50518ZM11.2037 9.50518L13.4537 11.5052L10.7963 14.4948L8.54627 12.4948L11.2037 9.50518ZM15.7037 13.5052L17.9537 15.5052L15.2963 18.4948L13.0463 16.4948L15.7037 13.5052ZM20.2037 17.5052L21.3287 18.5052L18.6713 21.4948L17.5463 20.4948L20.2037 17.5052Z" fill="#FF5252"/>
</svg>
