<svg width="24" height="24" viewBox="0 0 24 24" fill="none" xmlns="http://www.w3.org/2000/svg">
<circle cx="12" cy="12" r="12" fill="#B6FFBA"/>
<path d="M15.4909 10.1984H14.1818V8.39844H8.07268C7.59268 8.39844 7.19995 8.80344 7.19995 9.29844V14.2484H8.07268C8.07268 14.9954 8.65741 15.5984 9.38177 15.5984C10.1061 15.5984 10.6909 14.9954 10.6909 14.2484H13.309C13.309 14.9954 13.8938 15.5984 14.6181 15.5984C15.3425 15.5984 15.9272 14.9954 15.9272 14.2484H16.8V11.9984L15.4909 10.1984ZM15.2727 10.8734L16.128 11.9984H14.1818V10.8734H15.2727ZM9.38177 14.6984C9.14177 14.6984 8.94541 14.4959 8.94541 14.2484C8.94541 14.0009 9.14177 13.7984 9.38177 13.7984C9.62177 13.7984 9.81813 14.0009 9.81813 14.2484C9.81813 14.4959 9.62177 14.6984 9.38177 14.6984ZM10.3505 13.3484C10.1105 13.0739 9.77013 12.8984 9.38177 12.8984C8.99341 12.8984 8.65304 13.0739 8.41304 13.3484H8.07268V9.29844H13.309V13.3484H10.3505ZM14.6181 14.6984C14.3781 14.6984 14.1818 14.4959 14.1818 14.2484C14.1818 14.0009 14.3781 13.7984 14.6181 13.7984C14.8581 13.7984 15.0545 14.0009 15.0545 14.2484C15.0545 14.4959 14.8581 14.6984 14.6181 14.6984Z" fill="#67BF6C"/>
</svg>
